<svg width="16" height="17" viewBox="0 0 16 17" fill="none" xmlns="http://www.w3.org/2000/svg">
<path d="M13.5306 7.3447L8.5306 12.3447C8.46092 12.4146 8.37813 12.4701 8.28696 12.508C8.1958 12.5458 8.09806 12.5653 7.99935 12.5653C7.90064 12.5653 7.8029 12.5458 7.71173 12.508C7.62057 12.4701 7.53778 12.4146 7.4681 12.3447L2.4681 7.3447C2.3272 7.2038 2.24805 7.01271 2.24805 6.81345C2.24805 6.61419 2.3272 6.4231 2.4681 6.2822C2.60899 6.1413 2.80009 6.06215 2.99935 6.06215C3.19861 6.06215 3.3897 6.1413 3.5306 6.2822L7.99997 10.7516L12.4693 6.28157C12.6102 6.14068 12.8013 6.06152 13.0006 6.06152C13.1999 6.06152 13.391 6.14068 13.5318 6.28157C13.6727 6.42247 13.7519 6.61357 13.7519 6.81282C13.7519 7.01208 13.6727 7.20318 13.5318 7.34407L13.5306 7.3447Z" fill="#E1BA7B"/>
</svg>
